<mxfile host="app.diagrams.net" modified="2023-10-06T03:53:49.147Z" agent="Mozilla/5.0 (Windows NT 10.0; Win64; x64) AppleWebKit/537.36 (KHTML, like Gecko) Chrome/117.0.0.0 Safari/537.36" etag="rzyNohCI_KTwSh8QRbm8" version="22.0.3" type="device">
  <diagram id="C5RBs43oDa-KdzZeNtuy" name="Page-1">
    <mxGraphModel dx="956" dy="500" grid="1" gridSize="10" guides="1" tooltips="1" connect="1" arrows="1" fold="1" page="1" pageScale="1" pageWidth="827" pageHeight="1169" math="0" shadow="0">
      <root>
        <mxCell id="WIyWlLk6GJQsqaUBKTNV-0" />
        <mxCell id="WIyWlLk6GJQsqaUBKTNV-1" parent="WIyWlLk6GJQsqaUBKTNV-0" />
        <mxCell id="WIyWlLk6GJQsqaUBKTNV-2" value="" style="rounded=0;html=1;jettySize=auto;orthogonalLoop=1;fontSize=11;endArrow=block;endFill=0;endSize=8;strokeWidth=1;shadow=0;labelBackgroundColor=none;edgeStyle=orthogonalEdgeStyle;" parent="WIyWlLk6GJQsqaUBKTNV-1" source="WIyWlLk6GJQsqaUBKTNV-3" target="WIyWlLk6GJQsqaUBKTNV-6" edge="1">
          <mxGeometry relative="1" as="geometry" />
        </mxCell>
        <mxCell id="WIyWlLk6GJQsqaUBKTNV-3" value="Make population of random networks" style="rounded=1;whiteSpace=wrap;html=1;fontSize=12;glass=0;strokeWidth=1;shadow=0;" parent="WIyWlLk6GJQsqaUBKTNV-1" vertex="1">
          <mxGeometry x="160" y="60" width="120" height="40" as="geometry" />
        </mxCell>
        <mxCell id="S62ZLRvNcEp951vOG-M0-1" style="edgeStyle=orthogonalEdgeStyle;rounded=0;orthogonalLoop=1;jettySize=auto;html=1;exitX=1;exitY=0.5;exitDx=0;exitDy=0;entryX=0;entryY=0.5;entryDx=0;entryDy=0;" edge="1" parent="WIyWlLk6GJQsqaUBKTNV-1" source="WIyWlLk6GJQsqaUBKTNV-6" target="S62ZLRvNcEp951vOG-M0-13">
          <mxGeometry relative="1" as="geometry">
            <mxPoint x="320" y="200" as="targetPoint" />
          </mxGeometry>
        </mxCell>
        <mxCell id="WIyWlLk6GJQsqaUBKTNV-6" value="Mutate &lt;br&gt;networks" style="rhombus;whiteSpace=wrap;html=1;shadow=0;fontFamily=Helvetica;fontSize=12;align=center;strokeWidth=1;spacing=6;spacingTop=-4;" parent="WIyWlLk6GJQsqaUBKTNV-1" vertex="1">
          <mxGeometry x="178.75" y="160" width="82.5" height="80" as="geometry" />
        </mxCell>
        <mxCell id="S62ZLRvNcEp951vOG-M0-7" style="edgeStyle=orthogonalEdgeStyle;rounded=0;orthogonalLoop=1;jettySize=auto;html=1;exitX=0.5;exitY=0;exitDx=0;exitDy=0;entryX=0.5;entryY=1;entryDx=0;entryDy=0;" edge="1" parent="WIyWlLk6GJQsqaUBKTNV-1" source="S62ZLRvNcEp951vOG-M0-0" target="WIyWlLk6GJQsqaUBKTNV-6">
          <mxGeometry relative="1" as="geometry" />
        </mxCell>
        <mxCell id="S62ZLRvNcEp951vOG-M0-0" value="Combine networks" style="rhombus;whiteSpace=wrap;html=1;" vertex="1" parent="WIyWlLk6GJQsqaUBKTNV-1">
          <mxGeometry x="180" y="290" width="80" height="80" as="geometry" />
        </mxCell>
        <mxCell id="S62ZLRvNcEp951vOG-M0-5" style="edgeStyle=orthogonalEdgeStyle;rounded=0;orthogonalLoop=1;jettySize=auto;html=1;exitX=0;exitY=0.5;exitDx=0;exitDy=0;entryX=1;entryY=0.5;entryDx=0;entryDy=0;" edge="1" parent="WIyWlLk6GJQsqaUBKTNV-1" source="S62ZLRvNcEp951vOG-M0-4" target="S62ZLRvNcEp951vOG-M0-0">
          <mxGeometry relative="1" as="geometry" />
        </mxCell>
        <mxCell id="S62ZLRvNcEp951vOG-M0-4" value="Evaluate networks" style="rounded=1;whiteSpace=wrap;html=1;" vertex="1" parent="WIyWlLk6GJQsqaUBKTNV-1">
          <mxGeometry x="340" y="310" width="120" height="40" as="geometry" />
        </mxCell>
        <mxCell id="S62ZLRvNcEp951vOG-M0-21" style="edgeStyle=orthogonalEdgeStyle;rounded=0;orthogonalLoop=1;jettySize=auto;html=1;entryX=0.5;entryY=0;entryDx=0;entryDy=0;" edge="1" parent="WIyWlLk6GJQsqaUBKTNV-1" target="S62ZLRvNcEp951vOG-M0-4">
          <mxGeometry relative="1" as="geometry">
            <mxPoint x="400" y="270" as="sourcePoint" />
            <Array as="points">
              <mxPoint x="400" y="310" />
              <mxPoint x="400" y="310" />
            </Array>
          </mxGeometry>
        </mxCell>
        <mxCell id="S62ZLRvNcEp951vOG-M0-13" value="Run networks" style="swimlane;whiteSpace=wrap;html=1;" vertex="1" parent="WIyWlLk6GJQsqaUBKTNV-1">
          <mxGeometry x="320" y="130" width="180" height="140" as="geometry" />
        </mxCell>
        <mxCell id="S62ZLRvNcEp951vOG-M0-16" style="edgeStyle=orthogonalEdgeStyle;rounded=0;orthogonalLoop=1;jettySize=auto;html=1;exitX=0.5;exitY=1;exitDx=0;exitDy=0;entryX=0.5;entryY=0;entryDx=0;entryDy=0;" edge="1" parent="S62ZLRvNcEp951vOG-M0-13" source="S62ZLRvNcEp951vOG-M0-14" target="S62ZLRvNcEp951vOG-M0-15">
          <mxGeometry relative="1" as="geometry" />
        </mxCell>
        <mxCell id="S62ZLRvNcEp951vOG-M0-14" value="Compare input to output" style="rounded=1;whiteSpace=wrap;html=1;" vertex="1" parent="S62ZLRvNcEp951vOG-M0-13">
          <mxGeometry x="10" y="70" width="140" height="20" as="geometry" />
        </mxCell>
        <mxCell id="S62ZLRvNcEp951vOG-M0-19" style="edgeStyle=orthogonalEdgeStyle;rounded=0;orthogonalLoop=1;jettySize=auto;html=1;exitX=1;exitY=0.5;exitDx=0;exitDy=0;entryX=1;entryY=0.5;entryDx=0;entryDy=0;" edge="1" parent="S62ZLRvNcEp951vOG-M0-13" source="S62ZLRvNcEp951vOG-M0-15" target="S62ZLRvNcEp951vOG-M0-17">
          <mxGeometry relative="1" as="geometry" />
        </mxCell>
        <mxCell id="S62ZLRvNcEp951vOG-M0-15" value="Update Hebbian weights" style="rounded=1;whiteSpace=wrap;html=1;" vertex="1" parent="S62ZLRvNcEp951vOG-M0-13">
          <mxGeometry x="10" y="110" width="140" height="20" as="geometry" />
        </mxCell>
        <mxCell id="S62ZLRvNcEp951vOG-M0-18" style="edgeStyle=orthogonalEdgeStyle;rounded=0;orthogonalLoop=1;jettySize=auto;html=1;exitX=0.5;exitY=1;exitDx=0;exitDy=0;entryX=0.5;entryY=0;entryDx=0;entryDy=0;" edge="1" parent="S62ZLRvNcEp951vOG-M0-13" source="S62ZLRvNcEp951vOG-M0-17" target="S62ZLRvNcEp951vOG-M0-14">
          <mxGeometry relative="1" as="geometry" />
        </mxCell>
        <mxCell id="S62ZLRvNcEp951vOG-M0-17" value="Receive input" style="rounded=1;whiteSpace=wrap;html=1;" vertex="1" parent="S62ZLRvNcEp951vOG-M0-13">
          <mxGeometry x="10" y="30" width="140" height="20" as="geometry" />
        </mxCell>
      </root>
    </mxGraphModel>
  </diagram>
</mxfile>
